<svg width="374" height="268" viewBox="0 0 374 268" fill="none" xmlns="http://www.w3.org/2000/svg">
<path d="M328 33C281 0 238 0 238 0L233 4C286 18 320 45 319 46C264.01 4 124.03 0 56.02 45.98C56.79 45.19 81.91 19.75 139 4L136 0C136 0 93 0 46 33C46 33 0 116 0 220C0 220 27 267 97 268L120 243C78 230 64 204 64 204C119 255 261 253 313 204C313 204 297 232 256 243L277 268C347 267 374 220 374 220C374 116 328 33 328 33ZM127 190C108.78 190 94 174.33 94 155C94 135.67 108.78 120 127 120C145.22 120 160 135.67 160 155C160 174.33 145.23 190 127 190ZM243 190C224.77 190 210 174.33 210 155C210 135.67 224.77 120 243 120C261.23 120 276 135.67 276 155C276 174.33 261.23 190 243 190Z" fill="white"/>
</svg>
