<svg width="992" height="1024" viewBox="0 0 992 1024" fill="none" xmlns="http://www.w3.org/2000/svg">
<path d="M196.267 546.133C189.44 546.133 182.613 546.133 175.787 549.547L121.173 607.573L66.5598 552.96C59.7332 546.133 52.9065 546.133 46.0798 546.133C39.2532 546.133 35.8398 556.373 35.8398 563.2V1006.93C35.8398 1017.17 42.6665 1024 52.9065 1024H189.44C199.68 1024 206.507 1017.17 206.507 1006.93V563.2C206.507 556.373 203.093 549.547 196.267 546.133ZM373.76 344.747C366.933 337.92 356.693 337.92 349.866 344.747L281.6 413.013C278.187 416.427 278.187 419.84 278.187 426.667V1006.93C278.187 1017.17 285.013 1024 295.253 1024H431.786C442.026 1024 448.853 1017.17 448.853 1006.93V426.667C448.853 423.253 445.44 416.427 445.44 413.013L373.76 344.747ZM612.693 276.48C605.867 273.067 602.453 273.067 599.04 273.067C595.627 273.067 588.8 276.48 585.386 279.893L517.12 382.293C513.706 385.707 513.706 389.12 513.706 392.533V1006.93C513.706 1017.17 520.533 1024 530.773 1024H667.307C677.547 1024 684.373 1017.17 684.373 1006.93V358.4C684.373 354.987 680.96 348.16 680.96 344.747L612.693 276.48ZM868.693 225.28C865.28 221.867 861.867 221.867 855.04 221.867C848.213 221.867 844.8 225.28 841.386 225.28L756.053 310.613C752.64 314.027 752.64 317.44 752.64 324.267V1006.93C752.64 1017.17 759.466 1024 769.706 1024H906.24C916.48 1024 923.307 1017.17 923.307 1006.93V290.133C923.307 286.72 919.893 279.893 919.893 276.48L868.693 225.28Z" fill="white"/>
<path d="M964.267 3.41333C964.267 0 960.853 0 957.44 0H837.973C831.147 0 824.32 3.41333 820.907 10.24C817.493 17.0667 820.907 23.8933 824.32 27.3067L878.933 81.92L701.44 266.24L612.693 177.493C609.28 170.667 602.453 170.667 599.04 170.667C595.627 170.667 588.8 174.08 585.387 177.493L462.507 334.507L373.76 245.76C370.347 238.933 363.52 238.933 360.107 238.933C356.693 238.933 349.867 242.347 346.453 245.76L121.173 505.173L32.4267 413.013C25.6 409.6 11.9467 409.6 5.12 413.013C-1.70667 416.427 -1.70667 430.08 5.12 436.907L107.52 539.307C110.933 542.72 117.76 546.133 121.173 546.133C124.587 546.133 131.413 542.72 134.827 539.307L360.107 279.893L448.853 368.64C452.267 375.467 459.093 375.467 462.507 375.467C465.92 375.467 472.747 372.053 476.16 368.64L599.04 211.627L687.787 300.373C694.613 307.2 704.853 307.2 711.68 300.373L906.24 109.227L960.853 163.84C964.267 167.253 971.093 170.667 974.507 170.667H981.333C988.16 167.253 991.573 160.427 991.573 153.6V17.0667C991.573 3.41333 974.507 -3.41333 964.267 3.41333Z" fill="white"/>
</svg>
