<svg width="594" height="680" viewBox="0 0 594 680" fill="none" xmlns="http://www.w3.org/2000/svg">
<path d="M593.999 282.253C535.184 282.905 482.248 265.266 432.583 232.597V461.928C432.583 563.852 363.309 651.406 264.63 674.273C130.01 704.981 16.3009 607.63 1.9234 491.332C-13.107 375.033 61.391 273.106 175.103 250.239C197.32 245.666 229.996 245.666 248.295 249.586V372.419C243.066 371.111 237.836 369.807 232.609 369.154C188.171 361.314 145.04 383.527 127.394 424.036C109.751 464.544 121.512 511.585 157.457 539.027C187.518 562.548 220.846 565.812 254.828 550.132C288.812 535.106 307.111 507.665 311.03 470.423C311.685 465.197 311.685 459.316 311.685 453.437V12.4125C311.685 3.00087e-06 311.685 0 324.099 0H421.472C428.659 0 431.276 1.30557 431.929 9.80013C437.156 85.59 494.666 150.273 568.511 160.074C576.353 161.381 584.851 162.034 594 162.686V282.253H593.999Z" fill="white"/>
</svg>
