<?xml version="1.0" encoding="UTF-8"?>
<svg id="Calque_2" data-name="Calque 2" xmlns="http://www.w3.org/2000/svg" viewBox="0 0 40 40">
  <defs>
    <style>
      .cls-1 {
        fill: #fff;
      }
    </style>
  </defs>
  <g id="Calque_1-2" data-name="Calque 1">
    <path class="cls-1" d="m20,0C8.95,0,0,8.95,0,20s8.95,20,20,20,20-8.95,20-20S31.05,0,20,0Zm9.01,20.17c-.08.14-.2.27-.34.36l-12.13,7.68c-.16.1-.33.15-.51.16-.18,0-.36-.04-.51-.13-.16-.08-.29-.21-.38-.37-.09-.15-.14-.32-.14-.5v-15.37c0-.18.05-.35.14-.51.09-.15.22-.28.38-.37.15-.08.33-.13.51-.12.18.01.35.06.51.16l12.13,7.68c.14.09.26.21.34.36.08.15.12.31.12.48s-.04.34-.12.49Z"/>
  </g>
</svg>