<svg width="509" height="358" viewBox="0 0 509 358" fill="none" xmlns="http://www.w3.org/2000/svg">
<path d="M257.31 357.105C200.21 355.305 145.91 353.905 91.6096 351.805C79.9096 351.305 68.0096 349.505 56.6096 346.805C35.2096 341.805 20.4096 328.905 12.8096 307.805C6.70964 290.805 4.50964 273.305 2.90964 255.505C-0.590364 213.705 -0.590364 171.905 1.10964 130.105C2.10964 106.505 2.70964 82.7053 9.00964 59.8053C12.8096 46.1053 17.4096 32.7053 28.5096 22.8053C40.2096 12.3053 53.9096 6.00533 69.5096 5.30533C112.31 3.20533 155.01 0.605335 197.81 0.205335C255.41 -0.394665 313.11 0.405338 370.71 1.50534C395.61 2.00534 420.71 3.30534 445.41 6.50534C468.01 9.50534 484.91 22.1053 493.91 44.1053C500.81 61.0053 503.41 78.7053 504.91 96.7053C508.81 141.805 508.91 186.905 506.71 232.005C505.61 254.905 504.51 277.905 498.01 300.205C490.61 325.805 474.91 342.705 448.71 348.505C438.51 350.705 427.91 351.505 417.51 351.905C363.11 353.805 308.81 355.505 257.31 357.105ZM202.01 243.405C247.61 219.805 292.71 196.405 338.71 172.505C292.81 148.505 247.71 125.005 202.01 101.105C202.01 148.805 202.01 195.705 202.01 243.405Z" fill="white"/>
</svg>
