<svg width="14" height="14" viewBox="0 0 14 14" fill="none" xmlns="http://www.w3.org/2000/svg">
<path d="M7.78004 12.2044V7.32301H12.6614C12.8772 7.32301 13.0841 7.23729 13.2367 7.08473C13.3892 6.93215 13.475 6.72522 13.475 6.50945C13.475 6.29368 13.3892 6.08675 13.2367 5.93418C13.0841 5.78161 12.8772 5.69589 12.6614 5.69589H7.78004V0.814536C7.78004 0.598766 7.69432 0.391834 7.54176 0.239263C7.38918 0.086691 7.18225 0.000976572 6.96648 0.000976563C6.75072 0.000976553 6.54378 0.086691 6.39121 0.239263C6.23864 0.391834 6.15292 0.598766 6.15292 0.814536V5.69589H1.27157C1.0558 5.69589 0.848865 5.78161 0.696293 5.93418C0.543722 6.08675 0.458008 6.29368 0.458008 6.50945C0.458008 6.72522 0.543722 6.93215 0.696293 7.08473C0.848865 7.23729 1.0558 7.32301 1.27157 7.32301H6.15292V12.2044C6.15292 12.4201 6.23864 12.6271 6.3912 12.7796C6.54378 12.9322 6.75071 13.0179 6.96648 13.0179C7.18225 13.0179 7.38918 12.9322 7.54176 12.7796C7.69432 12.6271 7.78004 12.4201 7.78004 12.2044Z" fill="white"/>
</svg>
