<svg width="956" height="1024" viewBox="0 0 956 1024" fill="none" xmlns="http://www.w3.org/2000/svg">
<path d="M904.57 580.4H768.078C757.841 580.4 751.016 587.225 751.016 597.462V1006.94C751.016 1017.18 757.841 1024 768.078 1024H904.57C914.807 1024 921.632 1017.18 921.632 1006.94V597.462C921.632 587.225 914.807 580.4 904.57 580.4ZM133.389 140.212C126.564 136.8 112.915 136.8 106.09 140.212L37.8439 208.458C37.8439 211.871 34.4316 218.695 34.4316 222.108V1006.94C34.4316 1017.18 41.2563 1024 51.4932 1024H187.985C198.222 1024 205.047 1017.18 205.047 1006.94V222.108C205.047 218.695 201.635 211.871 201.635 208.458L133.389 140.212ZM433.672 293.766C426.847 290.354 420.022 290.354 416.61 293.766L358.601 338.126L300.592 293.766C293.767 290.354 286.942 290.354 283.53 293.766C276.705 293.766 273.293 300.591 273.293 307.415V1006.94C273.293 1017.18 280.118 1024 290.355 1024H426.847C437.084 1024 443.909 1017.18 443.909 1006.94V307.415C443.909 300.591 440.496 293.766 433.672 293.766ZM672.533 375.662C665.709 372.249 658.884 375.662 655.472 379.074L600.875 433.671L546.278 379.074C536.041 375.662 529.216 375.662 522.392 375.662C515.567 379.074 512.155 385.898 512.155 392.723V1006.94C512.155 1017.18 518.979 1024 529.216 1024H665.708C675.945 1024 682.77 1017.18 682.77 1006.94V392.723C682.77 385.898 679.358 379.074 672.533 375.662Z" fill="white"/>
<path d="M945.517 375.661C938.692 372.249 931.868 375.662 928.455 379.074L863.621 443.908L713.48 245.994C710.068 242.582 706.655 239.169 699.831 239.169C696.418 239.169 689.594 239.169 686.181 242.582L597.461 331.302L471.206 174.335C471.206 174.335 467.794 170.923 464.382 170.923C460.969 170.923 454.145 170.923 450.732 174.335L362.012 249.406L133.388 7.1323C126.563 0.307687 116.326 -3.10462 109.502 3.71999L7.1323 71.9661C0.307685 75.3785 -3.10462 85.6154 3.72 95.8523C7.1323 102.677 17.3692 106.089 27.6061 99.2646L116.326 37.8431L344.951 283.529C351.775 290.354 362.012 290.354 368.837 283.529L457.557 208.458L583.812 365.425C587.225 372.249 590.637 375.661 597.461 375.661C600.874 375.661 607.698 375.662 611.111 372.249L699.831 283.529L839.735 471.206L791.963 518.978C785.138 522.391 785.138 529.215 785.138 536.04C788.551 542.865 795.375 546.277 802.2 546.277H938.692C948.929 546.277 955.754 539.452 955.754 529.215V392.723C955.754 385.898 952.341 379.074 945.517 375.661Z" fill="white"/>
</svg>
