<svg width="689" height="560" viewBox="0 0 689 560" fill="none" xmlns="http://www.w3.org/2000/svg">
<path d="M688.888 66.4227C669.379 95.0228 645.767 119.385 618.052 139.51C618.351 143.58 618.5 149.703 618.5 157.88C618.5 195.814 612.96 233.655 601.882 271.403C590.803 309.151 573.98 345.387 551.413 380.11C528.845 414.834 501.969 445.543 470.785 472.239C439.601 498.935 402.001 520.236 357.985 536.142C313.969 552.047 266.912 560 216.816 560C137.848 560 65.5764 538.849 0 496.546C10.1834 497.703 21.5417 498.282 34.0751 498.282C99.6515 498.282 158.085 478.157 209.375 437.908C178.787 437.31 151.389 427.901 127.18 409.681C102.971 391.46 86.3535 368.199 77.3265 339.898C86.9503 341.354 95.8468 342.082 104.016 342.082C116.549 342.082 128.933 340.477 141.168 337.266C108.529 330.545 81.5042 314.285 60.0931 288.485C38.6819 262.685 27.9763 232.722 27.9763 198.596V196.86C47.7835 207.949 69.0641 213.923 91.8182 214.781C72.5705 201.938 57.2768 185.173 45.9371 164.488C34.5973 143.804 28.9088 121.345 28.8715 97.1137C28.8715 71.4258 35.2874 47.6608 48.1192 25.8186C83.3693 69.2789 126.285 104.058 176.866 130.157C227.447 156.256 281.572 170.761 339.24 173.673C336.928 162.584 335.771 151.794 335.771 141.302C335.771 102.21 349.536 68.8869 377.064 41.3321C404.593 13.7774 437.885 0 476.94 0C517.748 0 552.14 14.8788 580.116 44.6365C611.897 38.5132 641.776 27.1441 669.752 10.5291C658.972 44.0577 638.288 70.0257 607.701 88.4328C634.819 85.5206 661.919 78.2212 689 66.5347L688.888 66.4227Z" fill="white"/>
</svg>
